<svg width="20" height="20" viewBox="0 0 20 20" fill="none" xmlns="http://www.w3.org/2000/svg">
<path d="M2.5 11.6667H5C5.92047 11.6667 6.66667 12.4129 6.66667 13.3333V15.8333C6.66667 16.7538 5.92047 17.5 5 17.5H4.16667C3.24619 17.5 2.5 16.7538 2.5 15.8333V10C2.5 5.86064 5.86064 2.5 10 2.5C14.1394 2.5 17.5 5.86064 17.5 10V15.8333C17.5 16.7538 16.7538 17.5 15.8333 17.5H15C14.0795 17.5 13.3333 16.7538 13.3333 15.8333V13.3333C13.3333 12.4129 14.0795 11.6667 15 11.6667H17.5" stroke="#3498DB" stroke-width="1.66667" stroke-linecap="round" stroke-linejoin="round"/>
</svg>
