<svg width="103" height="18" viewBox="0 0 103 18" fill="none" xmlns="http://www.w3.org/2000/svg">
<path d="M7.5873 4.23153C7.52764 3.6733 7.27622 3.23864 6.83304 2.92756C6.39412 2.61648 5.8231 2.46094 5.11997 2.46094C4.62566 2.46094 4.20165 2.53551 3.84796 2.68466C3.49426 2.83381 3.22367 3.03622 3.03617 3.2919C2.84867 3.54759 2.75279 3.83949 2.74852 4.16761C2.74852 4.44034 2.81031 4.67685 2.93389 4.87713C3.06173 5.07742 3.23432 5.24787 3.45165 5.3885C3.66898 5.52486 3.90975 5.63992 4.17395 5.73367C4.43815 5.82742 4.70449 5.90625 4.97296 5.97017L6.20023 6.27699C6.69455 6.39205 7.16969 6.54759 7.62565 6.74361C8.08588 6.93963 8.4971 7.18679 8.85932 7.48509C9.2258 7.78338 9.51557 8.14347 9.72864 8.56534C9.94171 8.98722 10.0482 9.48153 10.0482 10.0483C10.0482 10.8153 9.85222 11.4908 9.46017 12.0746C9.06813 12.6541 8.50137 13.108 7.75989 13.4361C7.02267 13.7599 6.12992 13.9219 5.08162 13.9219C4.06315 13.9219 3.17892 13.7642 2.42892 13.4489C1.68318 13.1335 1.09938 12.6733 0.677501 12.0682C0.259888 11.4631 0.0340355 10.7259 -5.54621e-05 9.85653H2.33304C2.36713 10.3125 2.50776 10.6918 2.75492 10.9943C3.00208 11.2969 3.32381 11.5227 3.72012 11.6719C4.12068 11.821 4.56813 11.8956 5.06244 11.8956C5.57807 11.8956 6.02977 11.8189 6.41756 11.6655C6.8096 11.5078 7.11642 11.2905 7.33801 11.0135C7.5596 10.7322 7.67253 10.4041 7.67679 10.0291C7.67253 9.68821 7.57239 9.40696 7.37637 9.18537C7.18034 8.95952 6.90548 8.77202 6.55179 8.62287C6.20236 8.46946 5.79327 8.3331 5.32452 8.21378L3.83517 7.83026C2.75705 7.55327 1.90477 7.13352 1.27835 6.57102C0.656195 6.00426 0.345115 5.25213 0.345115 4.31463C0.345115 3.54332 0.553922 2.8679 0.971535 2.28835C1.39341 1.70881 1.96656 1.25923 2.691 0.939631C3.41543 0.615767 4.23574 0.453836 5.15193 0.453836C6.08091 0.453836 6.89483 0.615767 7.59369 0.939631C8.29682 1.25923 8.84867 1.70455 9.24923 2.27557C9.6498 2.84233 9.85648 3.49432 9.86926 4.23153H7.5873ZM12.0601 17.4055V3.90554H14.3357V5.52912H14.4699C14.5893 5.29048 14.7576 5.03693 14.9749 4.76847C15.1922 4.49574 15.4863 4.26349 15.857 4.07173C16.2278 3.87571 16.7008 3.7777 17.276 3.7777C18.0346 3.7777 18.7185 3.97159 19.3279 4.35938C19.9415 4.7429 20.4273 5.31179 20.7853 6.06605C21.1475 6.81605 21.3286 7.73651 21.3286 8.82742C21.3286 9.90554 21.1518 10.8217 20.7981 11.576C20.4444 12.3303 19.9628 12.9055 19.3535 13.3018C18.7441 13.6982 18.0537 13.8963 17.2824 13.8963C16.7199 13.8963 16.2533 13.8026 15.8826 13.6151C15.5118 13.4276 15.2135 13.2017 14.9877 12.9375C14.7661 12.669 14.5935 12.4155 14.4699 12.1768H14.3741V17.4055H12.0601ZM14.3293 8.81463C14.3293 9.44957 14.4188 10.0057 14.5978 10.483C14.781 10.9602 15.0431 11.3331 15.384 11.6016C15.7292 11.8658 16.1468 11.9979 16.6368 11.9979C17.1482 11.9979 17.5765 11.8615 17.9216 11.5888C18.2668 11.3118 18.5268 10.9347 18.7015 10.4574C18.8804 9.97585 18.9699 9.42827 18.9699 8.81463C18.9699 8.20526 18.8826 7.66406 18.7079 7.19105C18.5331 6.71804 18.2732 6.3473 17.928 6.07884C17.5829 5.81037 17.1525 5.67614 16.6368 5.67614C16.1425 5.67614 15.7228 5.80611 15.3776 6.06605C15.0324 6.32599 14.7704 6.69034 14.5914 7.15909C14.4167 7.62784 14.3293 8.17969 14.3293 8.81463ZM26.1354 13.9219C25.5133 13.9219 24.9529 13.8111 24.4543 13.5895C23.96 13.3636 23.5679 13.0313 23.2782 12.5923C22.9927 12.1534 22.8499 11.6122 22.8499 10.9688C22.8499 10.4148 22.9522 9.95668 23.1567 9.59446C23.3613 9.23225 23.6404 8.94247 23.9941 8.72514C24.3478 8.50781 24.7462 8.34375 25.1894 8.23296C25.6368 8.1179 26.0992 8.0348 26.5765 7.98367C27.1518 7.92401 27.6184 7.87074 27.9763 7.82386C28.3343 7.77273 28.5942 7.69602 28.7562 7.59375C28.9224 7.48722 29.0054 7.32315 29.0054 7.10156V7.06321C29.0054 6.58168 28.8627 6.20881 28.5772 5.9446C28.2917 5.6804 27.8804 5.5483 27.3435 5.5483C26.7768 5.5483 26.3272 5.67188 25.9948 5.91903C25.6667 6.16619 25.4451 6.4581 25.33 6.79475L23.1695 6.48793C23.34 5.89134 23.6212 5.39276 24.0133 4.99219C24.4053 4.58736 24.8847 4.2848 25.4515 4.08452C26.0182 3.87997 26.6447 3.7777 27.3307 3.7777C27.8037 3.7777 28.2746 3.8331 28.7434 3.94389C29.2121 4.05469 29.6404 4.23793 30.0282 4.49361C30.416 4.74503 30.727 5.08807 30.9614 5.52273C31.2001 5.95739 31.3194 6.50071 31.3194 7.1527V13.7237H29.0949V12.375H29.0182C28.8776 12.6477 28.6795 12.9034 28.4238 13.142C28.1724 13.3764 27.8549 13.5661 27.4714 13.7109C27.0921 13.8516 26.6468 13.9219 26.1354 13.9219ZM26.7363 12.2216C27.2008 12.2216 27.6035 12.13 27.9444 11.9467C28.2853 11.7592 28.5474 11.5121 28.7306 11.2053C28.9181 10.8984 29.0118 10.5639 29.0118 10.2017V9.04475C28.9394 9.1044 28.8158 9.1598 28.6411 9.21094C28.4706 9.26207 28.2789 9.30682 28.0658 9.34517C27.8527 9.38352 27.6418 9.41761 27.433 9.44744C27.2242 9.47727 27.0431 9.50284 26.8897 9.52415C26.5445 9.57102 26.2356 9.64773 25.9628 9.75426C25.6901 9.8608 25.4749 10.0099 25.3172 10.2017C25.1596 10.3892 25.0807 10.6321 25.0807 10.9304C25.0807 11.3565 25.2363 11.6783 25.5474 11.8956C25.8584 12.1129 26.2547 12.2216 26.7363 12.2216ZM33.6461 13.7237V3.90554H35.8897V5.5419H35.992C36.1709 4.97514 36.4778 4.53835 36.9124 4.23153C37.3513 3.92046 37.852 3.76492 38.4145 3.76492C38.5424 3.76492 38.6851 3.77131 38.8428 3.78409C39.0047 3.79261 39.139 3.80753 39.2455 3.82884V5.95739C39.1475 5.9233 38.992 5.89347 38.7789 5.8679C38.5701 5.83807 38.3677 5.82315 38.1716 5.82315C37.7498 5.82315 37.3705 5.91477 37.0339 6.09801C36.7015 6.27699 36.4394 6.52628 36.2476 6.84588C36.0559 7.16548 35.96 7.53409 35.96 7.95171V13.7237H33.6461ZM42.8922 10.6428L42.8858 7.84943H43.2565L46.7849 3.90554H49.4888L45.1486 8.73793H44.6692L42.8922 10.6428ZM40.7828 13.7237V0.632813H43.0967V13.7237H40.7828ZM46.9447 13.7237L43.7487 9.25568L45.3084 7.62571L49.7125 13.7237H46.9447ZM51.1331 0.632813H54.0351L57.9215 10.1186H58.0749L61.9612 0.632813H64.8632V13.7237H62.5877V4.73011H62.4662L58.8483 13.6854H57.148L53.5301 4.71094H53.4087V13.7237H51.1331V0.632813ZM67.3433 13.7237V3.90554H69.6573V13.7237H67.3433ZM68.5067 2.51207C68.1402 2.51207 67.8249 2.39063 67.5607 2.14773C67.2965 1.90057 67.1644 1.6044 67.1644 1.25923C67.1644 0.909801 67.2965 0.613637 67.5607 0.370739C67.8249 0.12358 68.1402 4.76837e-07 68.5067 4.76837e-07C68.8774 4.76837e-07 69.1928 0.12358 69.4527 0.370739C69.7169 0.613637 69.849 0.909801 69.849 1.25923C69.849 1.6044 69.7169 1.90057 69.4527 2.14773C69.1928 2.39063 68.8774 2.51207 68.5067 2.51207ZM74.3506 7.97088V13.7237H72.0367V3.90554H74.2483V5.57386H74.3634C74.5893 5.02415 74.9493 4.58736 75.4437 4.2635C75.9422 3.93963 76.558 3.7777 77.291 3.7777C77.9685 3.7777 78.5587 3.92259 79.0616 4.21236C79.5687 4.50213 79.9607 4.92188 80.2377 5.47159C80.5189 6.02131 80.6574 6.68821 80.6532 7.4723V13.7237H78.3393V7.83026C78.3393 7.17401 78.1688 6.66051 77.8279 6.28977C77.4912 5.91903 77.0246 5.73367 76.428 5.73367C76.0232 5.73367 75.6631 5.82315 75.3478 6.00213C75.0367 6.17685 74.7917 6.4304 74.6127 6.76278C74.438 7.09517 74.3506 7.49787 74.3506 7.97088ZM86.6489 13.8963C85.8776 13.8963 85.1873 13.6982 84.5779 13.3018C83.9685 12.9055 83.487 12.3303 83.1333 11.576C82.7796 10.8217 82.6027 9.90554 82.6027 8.82742C82.6027 7.73651 82.7817 6.81605 83.1397 6.06605C83.5019 5.31179 83.9898 4.7429 84.6035 4.35938C85.2171 3.97159 85.901 3.7777 86.6553 3.7777C87.2306 3.7777 87.7036 3.87571 88.0743 4.07173C88.4451 4.26349 88.7391 4.49574 88.9564 4.76847C89.1738 5.03693 89.3421 5.29048 89.4614 5.52912H89.5573V0.632813H91.8776V13.7237H89.602V12.1768H89.4614C89.3421 12.4155 89.1695 12.669 88.9437 12.9375C88.7178 13.2017 88.4195 13.4276 88.0488 13.6151C87.678 13.8026 87.2114 13.8963 86.6489 13.8963ZM87.2945 11.9979C87.7846 11.9979 88.2022 11.8658 88.5474 11.6016C88.8925 11.3331 89.1546 10.9602 89.3336 10.483C89.5126 10.0057 89.602 9.44957 89.602 8.81463C89.602 8.17969 89.5126 7.62784 89.3336 7.15909C89.1589 6.69034 88.8989 6.32599 88.5537 6.06605C88.2128 5.80611 87.7931 5.67614 87.2945 5.67614C86.7789 5.67614 86.3485 5.81037 86.0033 6.07884C85.6581 6.3473 85.3982 6.71804 85.2235 7.19105C85.0488 7.66406 84.9614 8.20526 84.9614 8.81463C84.9614 9.42827 85.0488 9.97585 85.2235 10.4574C85.4025 10.9347 85.6645 11.3118 86.0097 11.5888C86.3591 11.8615 86.7874 11.9979 87.2945 11.9979ZM102.103 6.50071L99.9939 6.73082C99.9342 6.51776 99.8298 6.31747 99.6807 6.12997C99.5358 5.94247 99.3398 5.79119 99.0926 5.67614C98.8455 5.56108 98.5429 5.50355 98.185 5.50355C97.7034 5.50355 97.2986 5.60796 96.9705 5.81676C96.6466 6.02557 96.4868 6.29617 96.4911 6.62855C96.4868 6.91406 96.5912 7.14631 96.8043 7.32528C97.0216 7.50426 97.3796 7.65128 97.8781 7.76634L99.5529 8.12429C100.482 8.32457 101.172 8.64205 101.624 9.07671C102.08 9.51136 102.31 10.0803 102.314 10.7834C102.31 11.4013 102.129 11.9467 101.771 12.4197C101.417 12.8885 100.925 13.255 100.294 13.5192C99.6637 13.7834 98.9392 13.9155 98.121 13.9155C96.9193 13.9155 95.952 13.6641 95.219 13.1612C94.4861 12.6541 94.0493 11.9489 93.9087 11.0455L96.1651 10.8281C96.2673 11.2713 96.4847 11.6058 96.8171 11.8317C97.1494 12.0575 97.582 12.1705 98.1146 12.1705C98.6644 12.1705 99.1054 12.0575 99.4378 11.8317C99.7744 11.6058 99.9428 11.3267 99.9428 10.9943C99.9428 10.7131 99.8341 10.4808 99.6168 10.2976C99.4037 10.1143 99.0713 9.97372 98.6196 9.87571L96.9449 9.52415C96.0031 9.32813 95.3064 8.99787 94.8547 8.53338C94.403 8.06463 94.1793 7.4723 94.1835 6.75639C94.1793 6.15128 94.3433 5.62713 94.6757 5.18395C95.0124 4.73651 95.479 4.39134 96.0756 4.14844C96.6764 3.90128 97.3689 3.7777 98.153 3.7777C99.3036 3.7777 100.209 4.02273 100.87 4.51278C101.534 5.00284 101.946 5.66548 102.103 6.50071Z" fill="url(#paint0_linear_200_238)"/>
<defs>
<linearGradient id="paint0_linear_200_238" x1="-0.818237" y1="6.72372" x2="103.182" y2="6.72372" gradientUnits="userSpaceOnUse">
<stop stop-color="#3498DB"/>
<stop offset="1" stop-color="#8E44AD"/>
</linearGradient>
</defs>
</svg>
