<svg width="32" height="32" viewBox="0 0 32 32" fill="none" xmlns="http://www.w3.org/2000/svg">
<path d="M14.6893 3.75201C14.8072 3.12095 15.358 2.66348 16 2.66348C16.6419 2.66348 17.1928 3.12095 17.3106 3.75201L18.712 11.1627C18.9157 12.2409 19.7591 13.0843 20.8373 13.288L28.248 14.6893C28.879 14.8072 29.3365 15.358 29.3365 16C29.3365 16.642 28.879 17.1928 28.248 17.3107L20.8373 18.712C19.7591 18.9157 18.9157 19.7591 18.712 20.8373L17.3106 28.248C17.1928 28.8791 16.6419 29.3365 16 29.3365C15.358 29.3365 14.8072 28.8791 14.6893 28.248L13.288 20.8373C13.0843 19.7591 12.2409 18.9157 11.1626 18.712L3.75198 17.3107C3.12092 17.1928 2.66345 16.642 2.66345 16C2.66345 15.358 3.12092 14.8072 3.75198 14.6893L11.1626 13.288C12.2409 13.0843 13.0843 12.2409 13.288 11.1627L14.6893 3.75201M26.6666 2.66668V8.00001M29.3333 5.33334H24" stroke="white" stroke-width="2.66667" stroke-linecap="round" stroke-linejoin="round"/>
<path d="M2.66669 26.6667C2.66669 28.1384 3.86158 29.3333 5.33335 29.3333C6.80513 29.3333 8.00002 28.1384 8.00002 26.6667C8.00002 25.1949 6.80513 24 5.33335 24C3.86158 24 2.66669 25.1949 2.66669 26.6667H2.66669" stroke="white" stroke-width="2.66667" stroke-linecap="round" stroke-linejoin="round"/>
</svg>
